<?xml version="1.0" encoding="utf-8"?>
<!-- Generator: Adobe Illustrator 16.0.0, SVG Export Plug-In . SVG Version: 6.00 Build 0)  -->
<!DOCTYPE svg PUBLIC "-//W3C//DTD SVG 1.1//EN" "http://www.w3.org/Graphics/SVG/1.1/DTD/svg11.dtd">
<svg version="1.1" id="Layer_1" xmlns="http://www.w3.org/2000/svg" xmlns:xlink="http://www.w3.org/1999/xlink" x="0px" y="0px"
	 width="82px" height="82px" viewBox="0 0 82 82" enable-background="new 0 0 82 82" xml:space="preserve">
<g>
	<path d="M71,22.15L42.211,5.53c-0.376-0.217-0.794-0.325-1.212-0.325c-0.419,0-0.837,0.108-1.213,0.325L11.001,22.15
		c-0.75,0.433-1.213,1.234-1.213,2.1v33.241c0,0.866,0.462,1.667,1.213,2.1l28.784,16.62c0.375,0.217,0.794,0.325,1.213,0.325
		c0.418,0,0.836-0.108,1.212-0.325L71,59.591c0.75-0.433,1.213-1.234,1.213-2.1V24.25C72.212,23.384,71.75,22.583,71,22.15z
		 M67.754,25.424v30.893L40.999,71.763L14.247,56.317V25.424L40.999,9.978L67.754,25.424z"/>
	<g>
		<path d="M61.757,35.153l-0.115-4.159l-0.04-1.486l-1.489,0.012c-0.645,0.006-15.808,0.146-20.931,0.654
			c-4.476,0.443-8.704,1.663-12.234,3.533c-0.647,0.303-1.279,0.687-1.871,1.141c-1.263,0.897-1.946,1.809-2.45,2.585
			c-1.6,2.312-2.406,5.186-2.204,7.892c0.198,2.699,1.377,5.113,3.32,6.803c1.874,1.629,4.383,2.527,7.072,2.527
			c0.306,0,0.615-0.009,0.921-0.031c0.305-0.024,0.607-0.059,0.905-0.103c0,0,1.096-0.08,3.796-1.321
			c0.206-0.109,2.272-1.206,6.65-3.487c3.939-2.051,4.666-5.977,4.741-8.189l3.28-0.241l0.294-0.022l0.266-0.133l9.244-4.574
			l0.871-0.431L61.757,35.153z M57.128,36.093l-5.567,2.756l-0.088-1.962L57.128,36.093z M50.178,35.009l0.139,3.182l0.044,1.041
			l-11.766,0.623l0.294,0.778c0.279,0.727,0.561,2.052,0.624,2.954c0.346,4.668-3.14,8.6-7.934,8.953
			c-0.257,0.021-0.512,0.029-0.767,0.029l0,0c-4.554,0-7.958-3.029-8.279-7.366c-0.17-2.347,0.564-4.823,2.021-6.786
			c1.505-2.028,3.554-3.238,5.774-3.41L50.178,35.009z M39.331,31.682c4.062-0.4,14.776-0.571,19.024-0.624l-7.699,2.738
			l-20.251-0.002C33.005,32.771,36.026,32.011,39.331,31.682z"/>
		<path d="M42.253,33.397l5.086-1.581l-2.088,0.033c-0.931,0.014-3.932,0.076-4.491,0.267l-5.655,1.363L42.253,33.397z"/>
		<path d="M28.49,43.212c0.036,0.109,0.132,0.189,0.243,0.205l1.854,0.276l-1.663,4.495c-0.052,0.139,0.004,0.294,0.13,0.369
			c0.048,0.026,0.1,0.04,0.151,0.04c0.092,0,0.175-0.04,0.235-0.111l3.76-4.55c0.072-0.083,0.087-0.199,0.051-0.302
			c-0.039-0.102-0.13-0.175-0.238-0.191l-1.596-0.239l1.406-3.796c0.051-0.134,0-0.285-0.119-0.363
			c-0.123-0.076-0.278-0.059-0.377,0.044l-3.765,3.815C28.482,42.985,28.454,43.105,28.49,43.212z"/>
	</g>
</g>
</svg>
