<svg width="500" height="173" xmlns="http://www.w3.org/2000/svg">
 <!-- Created with Method Draw - http://github.com/duopixel/Method-Draw/ -->

 <g>
  <title>Layer 1</title>
  <g stroke="null" id="svg_21">
   <g stroke="null" transform="matrix(1.7806085937463239,0,0,1.7806085937463239,-3166.280473169773,-1041.2571183691648) " id="svg_5">
    <g stroke="null" id="svg_6">
     <g stroke="null" id="svg_7">
      <path stroke="null" id="svg_8" d="m1836.179939,679.263828c-0.454,0 -0.907,-0.118 -1.314,-0.352l-37.181,-21.468c-0.812,-0.47 -1.312,-1.336 -1.312,-2.274l0,-42.939c0,-0.938 0.5,-1.805 1.312,-2.274l37.181,-21.469c0.813,-0.469 1.814,-0.47 2.626,0l37.188,21.469c0.812,0.469 1.314,1.336 1.314,2.274l0,42.938c0,0.938 -0.501,1.805 -1.314,2.274l-37.188,21.469c-0.405,0.234 -0.859,0.352 -1.312,0.352zm-34.556,-25.611l34.556,19.952l34.561,-19.952l0,-39.906l-34.561,-19.952l-34.556,19.952l0,39.906z"/>
     </g>
     <g stroke="null" id="svg_9">
      <path stroke="null" id="svg_10" d="m1862.995939,626.314828l-0.149,-5.372l-0.051,-1.921l-1.923,0.016c-0.831,0.009 -20.419,0.189 -27.036,0.846c-5.782,0.571 -11.244,2.149 -15.804,4.563c-0.836,0.392 -1.651,0.888 -2.416,1.474c-1.631,1.159 -2.513,2.337 -3.164,3.34c-2.068,2.985 -3.109,6.697 -2.847,10.194c0.256,3.484 1.779,6.605 4.287,8.786c2.422,2.106 5.663,3.267 9.136,3.267c0.395,0 0.795,-0.015 1.19,-0.044c0.395,-0.031 0.785,-0.076 1.169,-0.133c0,0 1.416,-0.103 4.904,-1.705c0.267,-0.142 2.934,-1.555 8.591,-4.503c5.088,-2.649 6.027,-7.721 6.124,-10.58l4.237,-0.312l0.38,-0.027l0.343,-0.172l11.941,-5.909l1.122,-0.557l-0.034,-1.251zm-5.981,1.213l-7.191,3.561l-0.113,-2.534l7.304,-1.027zm-8.976,-1.399l0.18,4.11l0.057,1.344l-15.198,0.805l0.38,1.004c0.359,0.94 0.723,2.651 0.805,3.816c0.446,6.029 -4.058,11.108 -10.248,11.565c-0.333,0.024 -0.662,0.038 -0.99,0.038l0,0c-5.883,0 -10.279,-3.913 -10.695,-9.515c-0.221,-3.033 0.729,-6.229 2.611,-8.766c1.944,-2.62 4.591,-4.183 7.458,-4.405l25.64,0.004zm-14.014,-4.298c5.249,-0.518 19.087,-0.74 24.574,-0.808l-9.945,3.538l-26.159,-0.002c3.36,-1.323 7.263,-2.304 11.53,-2.728z"/>
      <path stroke="null" id="svg_11" d="m1837.800939,624.044828l6.571,-2.042l-2.698,0.042c-1.2,0.018 -5.078,0.099 -5.801,0.345l-7.304,1.76l9.232,-0.105z"/>
      <path stroke="null" id="svg_12" d="m1820.022939,636.724828c0.046,0.141 0.169,0.244 0.312,0.264l2.396,0.356l-2.149,5.806c-0.066,0.179 0.006,0.38 0.169,0.477c0.062,0.035 0.128,0.051 0.195,0.051c0.117,0 0.225,-0.049 0.302,-0.142l4.857,-5.879c0.092,-0.107 0.113,-0.258 0.067,-0.39c-0.051,-0.131 -0.169,-0.226 -0.307,-0.246l-2.062,-0.309l1.816,-4.903c0.066,-0.173 0,-0.368 -0.154,-0.468c-0.159,-0.098 -0.359,-0.076 -0.488,0.057l-4.862,4.929c-0.103,0.103 -0.138,0.257 -0.092,0.397z"/>
     </g>
    </g>
    <g stroke="null" id="svg_13">
     <path stroke="null" id="svg_14" d="m1927.102939,651.320828l-4.682,0l-3.804,-22.531l-0.098,0l-3.755,22.531l-4.682,0l-5.169,-34.724l5.267,0l2.488,22.044l0.097,0l3.902,-22.044l3.804,0l4.048,22.581l0.098,0l2.39,-22.581l5.267,0l-5.171,34.724z"/>
     <path stroke="null" id="svg_15" d="m1936.368939,616.596828l4.975,0l0,14.875l6.145,0l0,-14.875l4.975,0l0,34.724l-4.975,0l0,-15.46l-6.145,0l0,15.46l-4.975,0l0,-34.724z"/>
     <path stroke="null" id="svg_16" d="m1958.265939,616.596828l4.975,0l0,34.724l-4.975,0l0,-34.724z"/>
     <path stroke="null" id="svg_17" d="m1985.137939,626.594828l-4.974,0l0,-1.122c0,-1.138 -0.268,-2.121 -0.805,-2.95s-1.439,-1.244 -2.707,-1.244c-0.683,0 -1.244,0.131 -1.683,0.391c-0.439,0.261 -0.781,0.593 -1.024,1c-0.244,0.407 -0.415,0.878 -0.512,1.415c-0.098,0.536 -0.146,1.097 -0.146,1.682c0,0.683 0.024,1.261 0.073,1.731c0.049,0.472 0.171,0.878 0.366,1.219s0.479,0.643 0.854,0.902c0.373,0.26 0.885,0.521 1.536,0.78l3.804,1.512c1.105,0.422 2,0.918 2.683,1.487c0.683,0.57 1.211,1.236 1.585,2c0.374,0.765 0.625,1.642 0.756,2.633c0.13,0.993 0.195,2.122 0.195,3.389c0,1.464 -0.146,2.821 -0.438,4.073c-0.293,1.252 -0.773,2.325 -1.439,3.219c-0.667,0.895 -1.553,1.602 -2.658,2.121c-1.105,0.52 -2.456,0.78 -4.048,0.78c-1.204,0 -2.325,-0.211 -3.365,-0.634c-1.041,-0.422 -1.935,-1 -2.682,-1.731c-0.749,-0.731 -1.341,-1.601 -1.78,-2.608c-0.439,-1.008 -0.659,-2.098 -0.659,-3.269l0,-1.853l4.975,0l0,1.561c0,0.911 0.269,1.731 0.805,2.462c0.537,0.732 1.439,1.098 2.707,1.098c0.845,0 1.503,-0.123 1.975,-0.366c0.472,-0.244 0.83,-0.585 1.073,-1.024c0.244,-0.439 0.398,-0.983 0.463,-1.634c0.064,-0.65 0.098,-1.365 0.098,-2.146c0,-0.91 -0.033,-1.658 -0.098,-2.244c-0.065,-0.585 -0.204,-1.056 -0.415,-1.414c-0.212,-0.357 -0.504,-0.65 -0.878,-0.878c-0.374,-0.227 -0.871,-0.471 -1.488,-0.731l-3.56,-1.463c-2.146,-0.877 -3.585,-2.04 -4.316,-3.487c-0.732,-1.446 -1.098,-3.26 -1.098,-5.438c0,-1.3 0.178,-2.536 0.536,-3.707s0.886,-2.178 1.585,-3.024c0.699,-0.845 1.585,-1.52 2.658,-2.024c1.073,-0.503 2.324,-0.756 3.755,-0.756c1.235,0 2.365,0.228 3.389,0.683c1.024,0.456 1.902,1.057 2.634,1.805c0.731,0.748 1.292,1.584 1.683,2.512c0.39,0.926 0.585,1.877 0.585,2.853l0,2.439z"/>
     <path stroke="null" id="svg_18" d="m1993.086939,621.278828l-5.755,0l0,-4.682l16.484,0l0,4.682l-5.755,0l0,30.042l-4.974,0l0,-30.042z"/>
     <path stroke="null" id="svg_19" d="m2006.984939,616.596828l4.975,0l0,29.749l9.851,0l0,4.975l-14.826,0l0,-34.724z"/>
     <path stroke="null" id="svg_20" d="m2026.004939,616.596828l14.826,0l0,4.682l-9.852,0l0,10.193l8.583,0l0,4.682l-8.583,0l0,10.192l9.852,0l0,4.975l-14.826,0l0,-34.724z"/>
    </g>
   </g>
  </g>
 </g>
</svg>