<svg width="64" height="64" xmlns="http://www.w3.org/2000/svg">

 <g>
  <title>background</title>
  <rect fill="none" id="canvas_background" height="402" width="582" y="-1" x="-1"/>
 </g>
 <g>
  <title>Layer 1</title>
  <g stroke="null" id="svg_1">
   <g stroke="null" id="svg_2">
    <g stroke="null" id="svg_3">
     <path stroke="null" id="svg_4" d="m32.477,60.069c-0.398,0 -0.795,-0.104 -1.151,-0.309l-22.161,-12.795c-0.713,-0.412 -1.151,-1.173 -1.151,-1.995l0,-25.598c0,-0.823 0.438,-1.583 1.151,-1.995l22.16,-12.798c0.712,-0.411 1.591,-0.412 2.303,0l22.17,12.799c0.714,0.411 1.152,1.172 1.152,1.995l0,25.597c0,0.823 -0.438,1.584 -1.152,1.995l-22.17,12.796c-0.357,0.205 -0.753,0.308 -1.151,0.308zm-19.857,-16.428l19.857,11.466l19.867,-11.467l0,-22.938l-19.867,-11.469l-19.857,11.468l0,22.94z" fill="#231F20"/>
    </g>
   </g>
   <path stroke="null" id="svg_5" d="m44.997561,36.00362l2.00199,-2.00199l-2.00199,-2.00199l-4.997974,4.997974l-11.997938,-11.997938l4.997974,-4.997974l-2.00199,-2.00199l-2.00199,2.00199l-2.00199,-2.00199l-2.995985,2.995985l-2.00199,-2.00199l-2.00199,2.00199l2.00199,2.00199l-2.995985,2.995985l2.00199,2.00199l-2.00199,2.00199l2.00199,2.00199l4.997974,-4.997974l11.997938,11.997938l-4.997974,4.997974l2.00199,2.00199l2.00199,-2.00199l2.00199,2.00199l2.995985,-2.995985l2.00199,2.00199l2.00199,-2.00199l-2.00199,-2.00199l2.995985,-2.995985l-2.00199,-2.00199z" fill="#231F20"/>
  </g>
 </g>
</svg>