<svg width="64" height="64" xmlns="http://www.w3.org/2000/svg">

 <g>
  <title>background</title>
  <rect fill="none" id="canvas_background" height="402" width="582" y="-1" x="-1"/>
 </g>
 <g>
  <title>Layer 1</title>
  <g id="svg_1">
   <g id="svg_2">
    <g id="svg_3">
     <path id="svg_4" d="m32.477,60.069c-0.398,0 -0.795,-0.104 -1.151,-0.309l-22.161,-12.795c-0.713,-0.412 -1.151,-1.173 -1.151,-1.995l0,-25.598c0,-0.823 0.438,-1.583 1.151,-1.995l22.16,-12.798c0.712,-0.411 1.591,-0.412 2.303,0l22.17,12.799c0.714,0.411 1.152,1.172 1.152,1.995l0,25.597c0,0.823 -0.438,1.584 -1.152,1.995l-22.17,12.796c-0.357,0.205 -0.753,0.308 -1.151,0.308zm-19.857,-16.428l19.857,11.466l19.867,-11.467l0,-22.938l-19.867,-11.469l-19.857,11.468l0,22.94z" fill="#231F20"/>
    </g>
   </g>
   <path stroke="null" id="svg_5" d="m39.083321,37.728878c-1.118889,0 -2.12,0.441667 -2.885555,1.133611l-10.496942,-6.109721c0.073611,-0.338611 0.1325,-0.677222 0.1325,-1.030555s-0.058889,-0.691944 -0.1325,-1.030555l10.379164,-6.050832c0.795,0.736111 1.840277,1.1925 3.003333,1.1925c2.443888,0 4.416666,-1.972777 4.416666,-4.416666s-1.972777,-4.416666 -4.416666,-4.416666s-4.416666,1.972777 -4.416666,4.416666c0,0.353333 0.058889,0.691944 0.1325,1.030555l-10.379164,6.050832c-0.795,-0.736111 -1.840277,-1.1925 -3.003333,-1.1925c-2.443888,0 -4.416666,1.972777 -4.416666,4.416666s1.972777,4.416666 4.416666,4.416666c1.163055,0 2.208333,-0.456389 3.003333,-1.1925l10.48222,6.124443c-0.073611,0.309167 -0.117778,0.633055 -0.117778,0.956944c0,2.370277 1.928611,4.298888 4.298888,4.298888c2.370277,0 4.298888,-1.928611 4.298888,-4.298888s-1.928611,-4.298888 -4.298888,-4.298888z" fill="#231F20"/>
  </g>
 </g>
</svg>