<?xml version="1.0" encoding="utf-8"?>
<!-- Generator: Adobe Illustrator 16.0.0, SVG Export Plug-In . SVG Version: 6.00 Build 0)  -->
<!DOCTYPE svg PUBLIC "-//W3C//DTD SVG 1.1//EN" "http://www.w3.org/Graphics/SVG/1.1/DTD/svg11.dtd">
<svg version="1.1" id="Layer_1" xmlns="http://www.w3.org/2000/svg" xmlns:xlink="http://www.w3.org/1999/xlink" x="0px" y="0px"
	 width="64px" height="64px" viewBox="0 0 64 64" enable-background="new 0 0 64 64" xml:space="preserve">
<g>
	<g>
		<g>
			<path fill="#231F20" d="M32.477,60.069c-0.398,0-0.795-0.104-1.151-0.309L9.165,46.965c-0.713-0.412-1.151-1.173-1.151-1.995
				V19.372c0-0.823,0.438-1.583,1.151-1.995L31.325,4.579c0.712-0.411,1.591-0.412,2.303,0l22.17,12.799
				c0.714,0.411,1.152,1.172,1.152,1.995V44.97c0,0.823-0.438,1.584-1.152,1.995l-22.17,12.796
				C33.271,59.966,32.875,60.069,32.477,60.069z M12.62,43.641l19.857,11.466L52.344,43.64V20.702L32.477,9.233L12.62,20.701V43.641
				z"/>
		</g>
	</g>
	<path fill="#231F20" d="M38.699,26.762c0,3.441-2.785,6.217-6.217,6.217c-3.433,0-6.218-2.776-6.218-6.217
		c0-3.433,2.786-6.22,6.218-6.22C35.914,20.542,38.699,23.329,38.699,26.762z M20.043,43.343c0-4.146,8.296-6.428,12.439-6.428
		c4.143,0,12.438,2.281,12.438,6.428v2.072l-12.438,5.97l-12.439-5.97V43.343z"/>
</g>
</svg>
